HIERARCHY
ROOT Hips
{
  OFFSET -32.5998 29.0326 120.673
  CHANNELS 6 Xposition Yposition Zposition Zrotation Xrotation Yrotation
  JOINT LeftUpLeg
  {
    OFFSET 8.64259 1.95398 -2.38835
    CHANNELS 3 Zrotation Xrotation Yrotation
    JOINT LeftLeg
    {
      OFFSET 43.7702 0 0
      CHANNELS 3 Zrotation Xrotation Yrotation
      JOINT LeftFoot
      {
        OFFSET 40.6238 0 0
        CHANNELS 3 Zrotation Xrotation Yrotation
        JOINT LeftToeBase
        {
          OFFSET 12.7242 0 0
          CHANNELS 3 Zrotation Xrotation Yrotation
          End Site
          {
            OFFSET 0 0 0
          }
        }
      }
    }
  }
  JOINT RightUpLeg
  {
    OFFSET -8.2249 1.95398 -2.59336
    CHANNELS 3 Zrotation Xrotation Yrotation
    JOINT RightLeg
    {
      OFFSET 43.5653 0 0
      CHANNELS 3 Zrotation Xrotation Yrotation
      JOINT RightFoot
      {
        OFFSET 40.6238 0 0
        CHANNELS 3 Zrotation Xrotation Yrotation
        JOINT RightToeBase
        {
          OFFSET 12.7242 0 0
          CHANNELS 3 Zrotation Xrotation Yrotation
          End Site
          {
            OFFSET 0 0 0
          }
        }
      }
    }
  }
  JOINT Spine
  {
    OFFSET 0.165834 0.87714 6.61349
    CHANNELS 3 Zrotation Xrotation Yrotation
    JOINT Spine1
    {
      OFFSET 7.38963 1.71661e-005 0
      CHANNELS 3 Zrotation Xrotation Yrotation
      JOINT Spine2
      {
        OFFSET 11.9445 1.14441e-005 0
        CHANNELS 3 Zrotation Xrotation Yrotation
        JOINT Spine3
        {
          OFFSET 14.7254 4.19617e-005 0
          CHANNELS 3 Zrotation Xrotation Yrotation
          JOINT Spine4
          {
            OFFSET 10.9679 0 0
            CHANNELS 3 Zrotation Xrotation Yrotation
            JOINT RightShoulder
            {
              OFFSET 2.46616 -1.6653 3.69651
              CHANNELS 3 Zrotation Xrotation Yrotation
              JOINT RightArm
              {
                OFFSET 13.0012 0 0
                CHANNELS 3 Zrotation Xrotation Yrotation
                JOINT RightForeArm
                {
                  OFFSET 28.7848 1.62311e-005 0
                  CHANNELS 3 Zrotation Xrotation Yrotation
                  JOINT RightHand
                  {
                    OFFSET 26.5688 1.62095e-005 0
                    CHANNELS 3 Zrotation Xrotation Yrotation
                    End Site
                    {
                      OFFSET 0 0 0
                    }
                  }
                }
              }
            }
            JOINT LeftShoulder
            {
              OFFSET 2.38034 -1.29275 -3.7523
              CHANNELS 3 Zrotation Xrotation Yrotation
              JOINT LeftArm
              {
                OFFSET 16.3182 6.07031e-005 0
                CHANNELS 3 Zrotation Xrotation Yrotation
                JOINT LeftForeArm
                {
                  OFFSET 27.0901 0 0
                  CHANNELS 3 Zrotation Xrotation Yrotation
                  JOINT LeftHand
                  {
                    OFFSET 24.5451 1.51738e-005 0
                    CHANNELS 3 Zrotation Xrotation Yrotation
                    End Site
                    {
                      OFFSET 0 0 0
                    }
                  }
                }
              }
            }
            JOINT Neck
            {
              OFFSET 5.0226 -0.0266342 0
              CHANNELS 3 Zrotation Xrotation Yrotation
              JOINT Head
              {
                OFFSET 6.69364 2.86102e-005 0
                CHANNELS 3 Zrotation Xrotation Yrotation
                End Site
                {
                  OFFSET 0 0 0
                }
              }
            }
          }
        }
      }
    }
  }
}
MOTION
Frames:	17
Frame Time:	0.0416667
39.4704 54.4392 16.6368 -9.77327 -52.697 -14.8202 -77.8426 69.0304 16.8388 -133.475 18.0785 5.846 104.428 27.8214 -2.8921 40.6774 2.05481 9.24745 83.0379 73.4435 163.925 -132.201 -9.45894 -5.22575 99.4654 -28.9376 -4.39582 54.2282 -10.9901 2.12113 0.576645 13.5386 -90.0088 -0.204651 1.14642 0.0410652 -11.8751 1.14711 -0.00945443 -34.4139 1.08106 0.383751 -14.4012 1.08107 0.383752 95.7423 -1.88221 -106.015 -13.0334 13.371 -39.6574 -18.1035 -22.2362 -24.2697 -63.0704 -12.3714 15.1506 -83.6477 -7.76403 79.8217 10.7749 -15.4159 -71.5585 15.3276 3.21433 -3.78949 49.6286 2.61277 1.15598 12.3008 -2.17208 -9.58726 -2.86967 0.230287 6.89346 
40.2631 52.0655 13.266 -13.5604 -56.501 -16.7336 -76.3794 67.347 16.3869 -136.708 14.6734 6.24988 108.177 31.4588 -0.456812 44.8407 2.91715 13.7057 78.3436 72.331 166.924 -136.082 -11.5303 -5.6222 100.478 -29.7459 -4.07897 52.1699 -10.1646 4.37605 0.426291 13.2606 -90.2415 0.353678 0.760452 -0.436224 -11.3171 0.740514 -0.469278 -33.8539 0.85639 -0.187499 -13.8413 0.85639 -0.187498 95.2463 2.78222 -112.003 -9.49205 11.965 -39.6295 -17.4614 -24.7723 -19.851 -52.9857 -10.0248 15.0841 -86.5875 -17.1924 75.8327 20.6443 -13.4764 -64.2675 13.5803 1.00389 -5.43266 44.2653 2.97022 2.72286 -2.81598 0.126725 -0.485519 8.59762 0.208404 0.257167 
40.5675 50.0882 9.35089 -16.0149 -59.8785 -18.9191 -69.4305 66.7558 12.4098 -139.851 15.1004 6.67 111.573 31.5841 -4.85062 36.9049 -0.00810158 9.8825 73.2371 71.1325 169.956 -138.817 -14.1783 -5.9485 102.816 -31.7695 -3.38291 49.3594 -9.11385 5.17827 0.178606 12.9876 -90.3584 0.89859 0.221557 -0.690132 -10.7725 0.190969 -0.699224 -33.3067 0.418718 -0.591643 -13.294 0.418719 -0.591643 93.0808 2.10093 -119.801 -17.2052 6.89297 -35.4259 -13.1807 -23.2243 -14.6119 -49.1972 -7.71152 11.8686 -89.6185 -26.2706 72.7477 27.8377 -12.8468 -61.582 11.8617 2.42852 -3.60755 42.4762 1.91169 0.475286 -13.2626 0.169875 8.61267 16.6559 -1.20071 -6.36994 
40.6675 48.1993 5.45403 -17.6538 -63.1332 -20.9735 -65.0125 64.853 9.71573 -141.878 16.9619 6.88737 112.769 33.6959 -3.85263 31.1698 -1.54304 6.52635 66.7131 69.4426 174.227 -141.224 -14.2693 -6.2822 106.889 -33.0682 -0.0381822 46.6043 -8.05709 4.63876 0.0828001 12.9634 -90.3325 0.946823 0.0399758 -0.645886 -10.7243 0.0115094 -0.647027 -33.2583 0.232235 -0.604018 -13.2457 0.232239 -0.604017 92.3367 3.53822 -124.567 -19.6557 4.75984 -31.7047 -10.7788 -21.807 -11.4627 -47.804 -7.45466 11.8069 -90.5542 -28.1172 71.5733 29.0551 -14.4504 -62.4787 11.399 6.62064 -0.693821 37.7952 1.78129 0.868609 -12.2444 -0.0206409 11.4198 17.1264 -2.00754 -8.75302 
40.6441 46.4338 1.85205 -19.5967 -67.476 -23.0605 -62.8806 64.4249 9.89029 -143.515 16.7925 7.0846 117.26 33.5531 -9.50125 21.3783 -5.05307 3.91967 63.2609 67.5705 175.128 -143.508 -14.9187 -6.63827 108.704 -34.0311 1.20387 41.3683 -6.37149 7.43744 0.0635459 13.2607 -90.3368 0.351717 0.00143822 -0.653809 -11.3193 -0.0273452 -0.653259 -33.8535 0.197864 -0.623167 -13.8408 0.197863 -0.623159 90.4069 -5.31314 -120.595 -30.1866 5.37647 -38.9444 -8.01554 -26.838 -7.832 -40.9083 -5.73988 10.4629 -89.7433 -24.6011 71.8204 28.2825 -15.265 -63.4904 11.2555 12.3888 0.0156538 22.9329 0.457274 -2.19142 -2.8637 0.64886 9.29246 11.1622 -1.2776 -6.57347 
41.4375 45.1353 -1.46689 -6.97852 -74.3289 -12.6727 -69.3291 61.2247 12.2891 -143.512 17.4126 7.22532 117.822 33.4769 -10.5823 12.8221 -8.95379 3.34535 53.538 69.8615 176.389 -146.134 -17.6429 -6.77697 109.149 -34.0989 2.76688 35.4273 -4.22634 7.45265 -0.49678 13.7401 -90.4378 -0.612588 -1.14897 -0.91535 -12.2833 -1.18814 -0.863888 -34.8182 -0.82077 -1.21831 -14.8056 -0.82077 -1.21834 98.0224 14.2395 -113.774 -8.85093 10.2525 -42.5568 -12.927 -28.4694 -12.0174 -31.9918 -3.05793 5.67208 -88.088 -19.0353 73.1153 22.7833 -18.4968 -65.721 12.7624 19.9412 0.0203062 29.4449 2.17282 3.53167 9.50145 1.21473 3.94542 3.06495 0.207343 -1.86397 
40.3336 43.4553 -4.82264 -18.7919 -74.7555 -22.1653 -54.9696 62.5364 3.44142 -144.99 19.682 7.36569 118.267 33.3565 -12.7683 5.98831 -10.6546 0.69124 55.1739 62.5188 -179.965 -146.442 -14.4835 -7.36548 109.595 -34.824 1.26315 30.6255 -2.67573 8.38359 0.0765631 13.9105 -90.3921 -0.947987 0.0111995 -0.76011 -12.6192 -0.022265 -0.75987 -35.1526 0.239117 -0.721618 -15.1399 0.239121 -0.721618 94.3339 2.53979 -115.181 -25.4052 10.2243 -36.5982 -14.4889 -27.1742 -16.9528 -26.8633 -2.22057 4.32945 -86.4456 -12.7361 74.2937 16.3323 -20.8214 -68.3283 15.3994 27.2481 -1.9164 23.3058 2.33704 6.19605 20.7826 0.364446 -1.56748 -3.39179 0.850705 2.30787 
39.7873 42.5042 -7.50931 -24.4211 -75.9673 -26.9186 -47.1941 62.0463 -2.09546 -145.16 21.9314 7.47708 116.655 33.7063 -11.5433 -1.4629 -12.5646 -1.89877 54.6788 58.6675 -177.436 -146.212 -13.4304 -7.7146 108.265 -34.523 -0.223676 27.2346 -2.0105 10.691 0.358719 14.0781 -90.36 -1.28154 0.585585 -0.659975 -12.9525 0.555978 -0.685118 -35.4881 0.75686 -0.45348 -15.4754 0.756861 -0.453474 96.1831 4.32836 -109.675 -19.0549 14.7613 -39.5407 -21.814 -28.2648 -27.2697 -25.4414 -2.56729 6.42969 -86.316 -10.5453 73.6125 7.48626 -23.7361 -70.5611 20.2945 25.4298 -8.12558 18.0878 1.82662 6.2262 26.432 -0.813148 -5.58312 -4.58419 1.21353 5.40783 
39.7451 42.0893 -9.74378 -25.1942 -78.0121 -27.7967 -44.132 59.8617 -5.44849 -144.975 23.1352 7.62541 110.955 32.814 -7.05114 -2.10842 -13.6069 -1.00397 51.9501 57.1438 -175.661 -146.095 -14.1314 -7.95021 105.998 -33.4332 -1.01734 24.3842 -1.16557 11.1741 0.333796 14.2346 -90.4053 -1.5945 0.520651 -0.749639 -13.2656 0.487155 -0.771839 -35.8005 0.721871 -0.558516 -15.7878 0.721874 -0.558511 97.1638 5.87666 -106.754 -16.0359 15.0009 -40.0186 -32.6503 -28.8273 -42.7641 -26.9578 -3.3959 9.19336 -86.6246 -10.3626 72.6769 2.05034 -24.4784 -70.8429 26.998 25.7659 -20.4604 17.5029 2.01136 7.59812 29.3345 -1.06604 -6.14883 -3.48459 1.39224 5.31303 
39.8021 41.6612 -11.5456 -25.6217 -79.0264 -28.017 -40.6723 57.1797 -8.84798 -144.835 23.3294 7.83415 106.472 31.2741 -4.03658 -4.34207 -14.738 -1.0906 49.0573 54.9354 -173.68 -146.064 -15.5275 -8.26482 103.664 -32.9873 -2.80162 19.7816 -0.0291439 12.5603 0.340921 14.2711 -90.4228 -1.66739 0.528765 -0.782278 -13.3385 0.493823 -0.804808 -35.8733 0.739415 -0.587211 -15.8607 0.739422 -0.587218 96.6794 3.81824 -106.985 -19.8272 11.4212 -35.6912 -40.8732 -20.7795 -57.9161 -24.0129 -3.24187 10.3464 -87.0275 -10.6524 71.7633 6.2724 -21.6369 -66.5393 31.5382 22.118 -33.7466 20.4896 2.54591 8.61481 30.8328 -1.00003 -6.2155 -2.34495 1.62069 5.41336 
40.1209 41.7363 -13.0156 -27.5399 -80.294 -30.4085 -41.6969 55.1451 -7.41932 -143.946 22.6788 8.03142 104.125 29.887 -3.25782 -4.07076 -15.8958 0.463756 46.0431 54.6651 -171.733 -145.767 -17.0198 -8.3855 100.135 -30.9481 -3.69405 18.8761 0.597967 11.578 0.217396 14.2081 -90.2234 -1.54212 0.353394 -0.408561 -13.2131 0.335075 -0.423731 -35.7484 0.459841 -0.283464 -15.7357 0.459848 -0.283475 95.0496 0.268538 -110.325 -23.2382 4.96172 -31.47 -49.4194 -14.7223 -68.7427 -25.5159 -3.88365 11.3011 -87.7259 -11.7775 70.5363 16.7561 -14.1998 -59.8976 44.4726 23.365 -49.6234 11.5662 1.61726 9.48206 29.7072 -1.25992 -7.91971 -0.514748 2.08571 6.10822 
40.2357 41.7135 -14.1598 -28.9942 -80.3091 -31.4901 -40.8403 53.4756 -8.21804 -143.021 20.4233 8.09839 104.418 29.3333 -3.53179 -4.85711 -14.6657 -1.52105 45.2687 53.0996 -170.836 -144.96 -16.6096 -8.43497 98.8877 -30.1642 -4.33415 18.0122 0.404681 13.018 0.239818 14.0382 -90.3092 -1.20215 0.366724 -0.575801 -12.8732 0.341028 -0.591382 -35.4081 0.522817 -0.438975 -15.3954 0.522818 -0.438966 94.6263 -0.827836 -110.935 -26.468 -5.22901 -30.1108 -56.823 -9.80574 -73.1797 -15.199 -1.58646 6.92838 -88.3488 -14.4276 70.3708 24.6676 -6.08028 -58.9242 47.7436 19.9851 -54.796 13.6452 2.01341 10.5845 31.1409 -0.778035 -5.68716 -0.640978 1.70885 5.22332 
40.4581 42.1532 -15.1406 -29.1721 -80.3522 -31.8707 -40.7459 52.6438 -8.72023 -141.66 19.7275 8.09157 102.401 27.8599 -3.08239 -2.52288 -13.9797 -0.809387 44.8065 52.9895 -169.995 -143.401 -15.896 -8.3404 98.4681 -29.6822 -4.22752 17.3737 0.613166 13.0429 0.27635 13.8455 -90.2991 -0.81667 0.442413 -0.554452 -12.4877 0.417581 -0.573396 -35.0229 0.588584 -0.395871 -15.0102 0.588592 -0.39587 94.1204 -2.34844 -111.42 -27.6621 -11.6687 -30.8499 -59.8964 -8.79255 -74.3007 -24.6572 -4.18361 14.273 -88.5499 -14.8531 70.106 28.0247 0.370256 -61.2597 49.182 21.0787 -55.391 11.4318 1.74452 10.6895 32.9595 -0.941988 -5.52075 -2.04256 1.50946 4.94384 
40.661 43.1641 -15.8488 -27.972 -79.7432 -30.7657 -41.6177 52.4686 -8.33752 -139.71 20.5863 8.01229 101.218 28.0801 -1.25918 -3.99962 -14.7476 -0.856373 45.0861 53.1124 -169.965 -141.256 -14.8924 -8.13809 98.3429 -28.9389 -3.40123 17.6497 0.657353 12.6451 0.260178 13.5676 -90.2659 -0.260782 0.421213 -0.494659 -11.9317 0.399034 -0.512726 -34.467 0.550404 -0.345208 -14.4544 0.550405 -0.345197 93.1171 -3.80837 -113.565 -28.611 -19.0704 -33.3464 -59.8672 -13.0763 -71.1083 -19.798 -2.57321 9.8949 -90.1671 -17.7278 67.7894 29.7267 4.7989 -62.497 46.4652 23.6837 -52.2556 12.4007 1.78495 10.0216 33.3663 -0.703513 -4.99767 -1.50775 1.53433 3.91538 
40.8228 44.6802 -16.2387 -25.833 -78.5444 -28.2946 -42.0128 53.0975 -8.09112 -137.47 21.1066 7.59454 100.72 27.2221 -1.96446 -5.85431 -13.6684 -3.28052 45.9376 53.7223 -170.725 -138.919 -17.1287 -7.94513 96.9469 -28.4129 -4.28557 18.7362 0.277414 12.6897 0.327873 13.3518 -90.2294 0.17092 0.568937 -0.419856 -11.5 0.549891 -0.444497 -34.0359 0.668812 -0.229461 -14.0233 0.668809 -0.229455 93.9606 -3.77748 -110.793 -25.511 -17.5682 -42.0545 -54.8081 -22.1034 -65.4907 -28.0413 -5.00594 15.1432 -90.0039 -18.2476 68.4257 28.9796 5.92851 -67.2785 39.2855 24.8486 -45.2841 12.9444 2.15794 12.2676 35.6652 -1.17532 -5.71111 -2.23588 1.48911 4.10027 
40.9754 46.0381 -16.4453 -24.5994 -77.1163 -26.9452 -42.6185 53.5093 -7.40365 -135.67 22.7809 7.25773 100.058 27.084 -1.54834 -5.37947 -14.771 -1.68756 46.2765 54.192 -170.855 -136.995 -20.0069 -7.76141 94.927 -27.7941 -5.80586 20.17 -0.427342 13.4169 0.368551 13.0503 -90.2079 0.773837 0.65723 -0.378642 -10.897 0.639925 -0.40721 -33.4334 0.740632 -0.163603 -13.4207 0.740636 -0.163613 93.5762 -4.83316 -111.221 -21.3408 -17.1357 -48.3304 -44.7459 -30.4487 -54.3603 -22.3042 -3.54402 13.1994 -90.4085 -20.5713 68.642 24.349 7.26551 -70.7346 35.2014 27.9624 -40.325 11.9439 2.3313 14.7362 36.6004 -1.3224 -4.76769 -2.15381 0.962644 3.53295 
41.2265 47.0137 -16.5595 -23.6103 -75.8889 -26.3118 -43.1455 53.2963 -6.67514 -134.231 23.8029 7.0196 98.5996 25.8794 -2.00169 0.609558 -13.2497 0.429746 45.2475 54.7493 -169.842 -135.7 -21.3498 -7.5148 93.9394 -26.8961 -5.24091 19.492 -0.000919751 12.7944 0.379504 12.7403 -90.1895 1.39397 0.685383 -0.348441 -10.2769 0.669378 -0.378284 -32.8134 0.758408 -0.126353 -12.8007 0.758416 -0.126348 92.6615 -6.4834 -112.826 -14.6758 -15.7686 -51.457 -35.8135 -36.8706 -44.0758 -22.5899 -3.8018 14.1901 -91.1438 -22.9981 68.2384 21.9637 9.99988 -74.6194 26.4277 28.768 -31.5957 9.63504 1.80728 13.4146 38.0167 -0.919147 -2.77963 -2.90844 0.445054 2.00416 
